General
Complete name                    : Bad Meets Evil - Fast Lane ft. Eminem, Royce Da 59.mp4
Format                           : MPEG-4
Format profile                   : Base Media / Version 2
Codec ID                         : mp42
File size                        : 169 MiB
Duration                         : 4mn 9s
Overall bit rate                 : 5 708 Kbps

Video
ID                               : 1
Format                           : AVC
Format/Info                      : Advanced Video Codec
Format profile                   : High@L4.0
Format settings, CABAC           : Yes
Format settings, ReFrames        : 1 frame
Codec ID                         : avc1
Codec ID/Info                    : Advanced Video Coding
Duration                         : 4mn 9s
Bit rate mode                    : Variable
Bit rate                         : 5 551 Kbps
Maximum bit rate                 : 10.6 Mbps
Width                            : 1 920 pixels
Height                           : 1 080 pixels
Display aspect ratio             : 16:9
Frame rate mode                  : Variable
Frame rate                       : 23.976 fps
Minimum frame rate               : 17.241 fps
Maximum frame rate               : 24.390 fps
Resolution                       : 24 bits
Colorimetry                      : 4:2:0
Scan type                        : Progressive
Bits/(Pixel*Frame)               : 0.112
Stream size                      : 165 MiB (97)

Audio
ID                               : 2
Format                           : AAC
Format/Info                      : Advanced Audio Codec
Format version                   : Version 4
Format profile                   : LC
Format settings, SBR             : No
Codec ID                         : 40
Duration                         : 4mn 8s
Bit rate mode                    : Variable
Bit rate                         : 152 Kbps
Maximum bit rate                 : 176 Kbps
Channel(s)                       : 2 channels
Channel positions                : L R
Sampling rate                    : 44.1 KHz
Resolution                       : 16 bits
Stream size                      : 4.51 MiB (3%)


[img]http://img.sceper.eu/images/badmeetevi.png[/img]

[img]http://img.sceper.eu/images/badmeeknk.png[/img]

